<svg width="600" height="400" viewBox="0 0 600 400" xmlns="http://www.w3.org/2000/svg">
  <!-- Background elements -->
  <rect x="0" y="0" width="600" height="400" fill="#f9fafb" opacity="0.5"/>
  
  <!-- Data visualization elements -->
  <g transform="translate(100, 200)">
    <!-- Bar chart -->
    <rect x="0" y="-20" width="30" height="20" fill="#6366f1" rx="2"/>
    <rect x="40" y="-60" width="30" height="60" fill="#6366f1" rx="2"/>
    <rect x="80" y="-100" width="30" height="100" fill="#6366f1" rx="2"/>
    <rect x="120" y="-80" width="30" height="80" fill="#6366f1" rx="2"/>
    <rect x="160" y="-120" width="30" height="120" fill="#6366f1" rx="2"/>
    
    <!-- Line chart -->
    <path d="M250,0 L280,-40 L310,-20 L340,-60 L370,-30 L400,-70" 
          stroke="#10b981" 
          stroke-width="3" 
          fill="none"/>
    
    <!-- Data points -->
    <circle cx="250" cy="0" r="5" fill="#10b981"/>
    <circle cx="280" cy="-40" r="5" fill="#10b981"/>
    <circle cx="310" cy="-20" r="5" fill="#10b981"/>
    <circle cx="340" cy="-60" r="5" fill="#10b981"/>
    <circle cx="370" cy="-30" r="5" fill="#10b981"/>
    <circle cx="400" cy="-70" r="5" fill="#10b981"/>
  </g>
  
  <!-- Abstract data elements -->
  <g transform="translate(300, 100)">
    <!-- Neural network representation -->
    <circle cx="0" cy="0" r="10" fill="#6366f1"/>
    <circle cx="50" cy="-30" r="10" fill="#6366f1"/>
    <circle cx="50" cy="0" r="10" fill="#6366f1"/>
    <circle cx="50" cy="30" r="10" fill="#6366f1"/>
    <circle cx="100" cy="-15" r="10" fill="#6366f1"/>
    <circle cx="100" cy="15" r="10" fill="#6366f1"/>
    <circle cx="150" cy="0" r="10" fill="#6366f1"/>
    
    <!-- Connections -->
    <line x1="10" y1="0" x2="40" y2="-30" stroke="#d1d5db" stroke-width="1"/>
    <line x1="10" y1="0" x2="40" y2="0" stroke="#d1d5db" stroke-width="1"/>
    <line x1="10" y1="0" x2="40" y2="30" stroke="#d1d5db" stroke-width="1"/>
    
    <line x1="60" y1="-30" x2="90" y2="-15" stroke="#d1d5db" stroke-width="1"/>
    <line x1="60" y1="-30" x2="90" y2="15" stroke="#d1d5db" stroke-width="1"/>
    <line x1="60" y1="0" x2="90" y2="-15" stroke="#d1d5db" stroke-width="1"/>
    <line x1="60" y1="0" x2="90" y2="15" stroke="#d1d5db" stroke-width="1"/>
    <line x1="60" y1="30" x2="90" y2="-15" stroke="#d1d5db" stroke-width="1"/>
    <line x1="60" y1="30" x2="90" y2="15" stroke="#d1d5db" stroke-width="1"/>
    
    <line x1="110" y1="-15" x2="140" y2="0" stroke="#d1d5db" stroke-width="1"/>
    <line x1="110" y1="15" x2="140" y2="0" stroke="#d1d5db" stroke-width="1"/>
  </g>
  
  <!-- Decorative elements -->
  <g transform="translate(50, 50)">
    <circle cx="0" cy="0" r="5" fill="#10b981" opacity="0.5"/>
    <circle cx="20" cy="20" r="8" fill="#6366f1" opacity="0.5"/>
    <circle cx="40" cy="-10" r="6" fill="#10b981" opacity="0.5"/>
    <circle cx="500" cy="250" r="7" fill="#6366f1" opacity="0.5"/>
    <circle cx="470" cy="280" r="9" fill="#10b981" opacity="0.5"/>
    <circle cx="520" cy="230" r="5" fill="#6366f1" opacity="0.5"/>
  </g>
</svg>